<svg width="11" height="26" viewBox="0 0 11 26" fill="none" xmlns="http://www.w3.org/2000/svg">
<path d="M6.05 16.9923V9.75C6.05 9.3925 5.8025 9.1 5.5 9.1C5.1975 9.1 4.95 9.3925 4.95 9.75V16.9923C4.004 17.2835 3.3 18.2923 3.3 19.5C3.3 20.9339 4.2856 22.1 5.5 22.1C6.7144 22.1 7.7 20.9339 7.7 19.5C7.7 18.2923 6.996 17.2835 6.05 16.9923ZM9.35 14.8967V4.55C9.35 2.041 7.623 0 5.5 0C3.377 0 1.65 2.041 1.65 4.55V14.8967C1.12838 15.4945 0.713578 16.21 0.430157 17.0007C0.146737 17.7914 0.000463769 18.6413 0 19.5C0 23.0841 2.4673 26 5.5 26C8.5327 26 11 23.0841 11 19.5C11 17.693 10.3642 16.0693 9.35 14.8967ZM5.5 23.4C3.6806 23.4 2.2 21.6502 2.2 19.5C2.20179 18.8185 2.35518 18.1495 2.64479 17.5601C2.93439 16.9707 3.35002 16.4817 3.85 16.1421V4.55C3.85 3.4749 4.5903 2.6 5.5 2.6C6.4097 2.6 7.15 3.4749 7.15 4.55V16.1421C7.64998 16.4817 8.06561 16.9707 8.35522 17.5601C8.64482 18.1495 8.79821 18.8185 8.8 19.5C8.8 21.6502 7.3194 23.4 5.5 23.4Z" fill="#F2F2F2"/>
</svg>
