<svg width="18" height="24" viewBox="0 0 18 24" fill="none" xmlns="http://www.w3.org/2000/svg">
<path d="M9 0L7.875 1.22479C7.875 1.22479 5.955 3.339 4.02 6.08019C2.085 8.82139 0 12.1021 0 15.2515C0 17.5718 0.948212 19.797 2.63604 21.4376C4.32387 23.0783 6.61305 24 9 24C11.3869 24 13.6761 23.0783 15.364 21.4376C17.0518 19.797 18 17.5718 18 15.2515C18 12.1021 15.915 8.82139 13.98 6.08019C12.7865 4.39499 11.4996 2.77413 10.125 1.22479L9 0ZM9 4.56379C9.66 5.32199 10.26 5.94897 11.52 7.72783C13.335 10.294 15 13.5601 15 15.2515C15 18.4885 12.33 21.0838 9 21.0838C5.67 21.0838 3 18.4885 3 15.2515C3 13.5601 4.665 10.294 6.48 7.72783C7.74 5.94897 8.34 5.32199 9 4.56379Z" fill="#F2F2F2"/>
</svg>
