<svg width="16" height="16" viewBox="0 0 16 16" fill="none" xmlns="http://www.w3.org/2000/svg">
<path d="M4.15841 11.025C4.22074 11.0458 4.27837 11.0786 4.32799 11.1217C4.37762 11.1648 4.41826 11.2172 4.44761 11.276C4.47696 11.3348 4.49443 11.3988 4.49903 11.4643C4.50363 11.5299 4.49526 11.5957 4.47441 11.658L3.97441 13.158C3.95558 13.2226 3.92391 13.2827 3.88131 13.3347C3.83871 13.3868 3.78604 13.4297 3.72646 13.4609C3.66689 13.4921 3.60163 13.511 3.53459 13.5164C3.46755 13.5218 3.4001 13.5136 3.3363 13.4923C3.27249 13.4711 3.21363 13.4371 3.16324 13.3926C3.11285 13.3481 3.07197 13.2938 3.04303 13.2331C3.0141 13.1724 2.99772 13.1064 2.99486 13.0392C2.99201 12.972 3.00274 12.905 3.02641 12.842L3.52641 11.342C3.56819 11.2162 3.65825 11.1121 3.77677 11.0526C3.89529 10.9932 4.03257 10.9832 4.15841 11.025ZM7.15841 11.025C7.22074 11.0458 7.27837 11.0786 7.32799 11.1217C7.37762 11.1648 7.41826 11.2172 7.44761 11.276C7.47696 11.3348 7.49443 11.3988 7.49903 11.4643C7.50363 11.5299 7.49526 11.5957 7.47441 11.658L6.47441 14.658C6.45558 14.7226 6.42391 14.7827 6.38131 14.8347C6.33871 14.8868 6.28604 14.9297 6.22646 14.9609C6.16689 14.9921 6.10163 15.011 6.03459 15.0164C5.96755 15.0218 5.9001 15.0136 5.8363 14.9923C5.77249 14.9711 5.71363 14.9371 5.66324 14.8926C5.61285 14.8481 5.57197 14.7938 5.54303 14.7331C5.5141 14.6724 5.49772 14.6064 5.49486 14.5392C5.49201 14.472 5.50274 14.405 5.52641 14.342L6.52641 11.342C6.56819 11.2162 6.65825 11.1121 6.77677 11.0526C6.89529 10.9932 7.03257 10.9832 7.15841 11.025ZM10.1584 11.025C10.2207 11.0458 10.2784 11.0786 10.328 11.1217C10.3776 11.1648 10.4183 11.2172 10.4476 11.276C10.477 11.3348 10.4944 11.3988 10.499 11.4643C10.5036 11.5299 10.4953 11.5957 10.4744 11.658L9.97441 13.158C9.95558 13.2226 9.92391 13.2827 9.88131 13.3347C9.83871 13.3868 9.78604 13.4297 9.72646 13.4609C9.66689 13.4921 9.60163 13.511 9.53459 13.5164C9.46755 13.5218 9.4001 13.5136 9.3363 13.4923C9.27249 13.4711 9.21363 13.4371 9.16324 13.3926C9.11285 13.3481 9.07197 13.2938 9.04303 13.2331C9.0141 13.1724 8.99772 13.1064 8.99486 13.0392C8.99201 12.972 9.00274 12.905 9.02641 12.842L9.52641 11.342C9.56819 11.2162 9.65825 11.1121 9.77677 11.0526C9.89529 10.9932 10.0326 10.9832 10.1584 11.025ZM13.1584 11.025C13.2207 11.0458 13.2784 11.0786 13.328 11.1217C13.3776 11.1648 13.4183 11.2172 13.4476 11.276C13.477 11.3348 13.4944 11.3988 13.499 11.4643C13.5036 11.5299 13.4953 11.5957 13.4744 11.658L12.4744 14.658C12.4556 14.7226 12.4239 14.7827 12.3813 14.8347C12.3387 14.8868 12.286 14.9297 12.2265 14.9609C12.1669 14.9921 12.1016 15.011 12.0346 15.0164C11.9675 15.0218 11.9001 15.0136 11.8363 14.9923C11.7725 14.9711 11.7136 14.9371 11.6632 14.8926C11.6129 14.8481 11.572 14.7938 11.543 14.7331C11.5141 14.6724 11.4977 14.6064 11.4949 14.5392C11.492 14.472 11.5027 14.405 11.5264 14.342L12.5264 11.342C12.5682 11.2162 12.6582 11.1121 12.7768 11.0526C12.8953 10.9932 13.0326 10.9832 13.1584 11.025ZM13.4054 4.027C13.1977 2.98016 12.6606 2.02721 11.8726 1.30748C11.0846 0.587746 10.087 0.138985 9.02565 0.0268076C7.96433 -0.0853695 6.89495 0.144921 5.97387 0.684009C5.0528 1.2231 4.32833 2.0427 3.90641 3.023C3.43325 2.96849 2.95394 3.01113 2.49783 3.14831C2.04172 3.28548 1.61841 3.51431 1.25381 3.82078C0.88921 4.12724 0.590998 4.5049 0.377432 4.93063C0.163866 5.35635 0.0394397 5.82119 0.0117705 6.29668C-0.0158987 6.77217 0.0537718 7.2483 0.216516 7.69592C0.379261 8.14355 0.631655 8.55324 0.958246 8.89993C1.28484 9.24662 1.67875 9.523 2.11587 9.71216C2.55299 9.90131 3.02412 9.99926 3.50041 10H13.0004C13.7615 10.0009 14.4945 9.71242 15.0509 9.19307C15.6073 8.67373 15.9455 7.96232 15.997 7.20295C16.0485 6.44358 15.8094 5.69303 15.3282 5.10334C14.847 4.51364 14.1597 4.12888 13.4054 4.027Z" fill="#F2F2F2"/>
</svg>
