<svg width="56" height="55" viewBox="0 0 56 55" fill="none" xmlns="http://www.w3.org/2000/svg">
<path d="M35.986 7.992C36.876 7.992 37.591 7.237 37.591 6.387V2.21C37.591 1.32 36.876 0.604996 35.986 0.604996C35.096 0.604996 34.381 1.32 34.381 2.21V6.387C34.381 7.237 35.097 7.992 35.986 7.992ZM24.771 11.724C25.409 12.362 26.453 12.342 27.053 11.724C27.652 11.104 27.671 10.08 27.053 9.48L24.075 6.483C23.7736 6.18529 23.3671 6.01834 22.9435 6.01834C22.5199 6.01834 22.1134 6.18529 21.812 6.483C21.5143 6.78435 21.3473 7.19089 21.3473 7.6145C21.3473 8.0381 21.5143 8.44465 21.812 8.746L24.771 11.724ZM44.921 11.724C45.52 12.342 46.564 12.362 47.201 11.724L50.161 8.746C50.779 8.126 50.76 7.102 50.161 6.483C49.8596 6.18529 49.4531 6.01834 49.0295 6.01834C48.6059 6.01834 48.1994 6.18529 47.898 6.483L44.92 9.48C44.301 10.08 44.32 11.105 44.92 11.724M40.955 28.934C43.797 27.019 45.557 24.061 45.557 20.657C45.5625 19.3976 45.3189 18.1495 44.84 16.9847C44.3612 15.8198 43.6566 14.7612 42.7669 13.8699C41.8772 12.9785 40.8199 12.2719 39.656 11.7909C38.492 11.3098 37.2444 11.0638 35.985 11.067C32.485 11.067 29.449 12.942 27.845 15.746C28.657 16.577 29.353 17.486 29.933 18.608C36.313 19.13 40.433 23.094 40.955 28.934ZM8.025 39.588H28.948C34.42 39.588 38.674 35.431 38.674 30.075C38.674 24.757 34.343 20.735 28.561 20.696C26.298 16.364 22.276 13.87 17.597 13.87C11.312 13.87 5.975 18.743 5.395 25.105C2.108 26.09 0 28.875 0 32.279C0 36.61 3.268 39.588 8.025 39.588ZM50.219 22.263H54.395C55.265 22.263 55.981 21.548 56 20.658C56 19.768 55.265 19.053 54.395 19.053H50.218C49.348 19.053 48.613 19.769 48.613 20.658C48.613 21.548 49.348 22.263 50.218 22.263M47.898 34.852C48.2019 35.1465 48.6095 35.3094 49.0326 35.3057C49.4557 35.302 49.8604 35.1318 50.159 34.832C50.759 34.214 50.779 33.189 50.159 32.57L47.162 29.611C46.544 29.012 45.538 28.993 44.919 29.611C44.6213 29.9123 44.4543 30.3189 44.4543 30.7425C44.4543 31.1661 44.6213 31.5726 44.919 31.874L47.898 34.852ZM23.262 48.774L25.775 44.404C26.123 43.804 25.93 43.127 25.35 42.798C24.77 42.45 24.112 42.644 23.764 43.243L21.231 47.633C20.902 48.193 21.057 48.87 21.656 49.218C21.9286 49.3686 22.2493 49.4063 22.5493 49.3231C22.8494 49.2399 23.1049 49.0424 23.261 48.773M7.868 48.792L10.382 44.422C10.749 43.822 10.556 43.145 9.976 42.817C9.396 42.469 8.719 42.662 8.371 43.261L5.838 47.651C5.509 48.211 5.683 48.888 6.283 49.237C6.843 49.546 7.54 49.353 7.868 48.792ZM29.313 54.206L31.827 49.856C32.175 49.256 31.982 48.579 31.401 48.231C30.821 47.902 30.164 48.096 29.816 48.676L27.263 53.085C26.953 53.626 27.109 54.303 27.708 54.651C28.288 54.98 28.984 54.786 29.313 54.206ZM13.921 54.226L16.434 49.875C16.783 49.275 16.609 48.598 16.029 48.25C15.429 47.922 14.772 48.115 14.424 48.695L11.89 53.104C11.562 53.645 11.736 54.322 12.316 54.67C12.896 54.999 13.592 54.806 13.921 54.226Z" fill="#F2F2F2"/>
</svg>
