<svg width="223" height="200" viewBox="0 0 223 200" fill="none" xmlns="http://www.w3.org/2000/svg">
<path d="M147 48C140.155 47.9958 133.34 48.9141 126.74 50.73C124.135 46.479 120.97 42.5976 117.33 39.19L126.84 25.62C127.443 24.7592 127.87 23.7881 128.098 22.7621C128.325 21.7361 128.349 20.6754 128.166 19.6405C127.984 18.6056 127.599 17.6168 127.035 16.7305C126.47 15.8442 125.736 15.0777 124.875 14.475C124.015 13.8722 123.043 13.4449 122.018 13.2174C120.992 12.99 119.931 12.9668 118.896 13.1493C117.861 13.3317 116.872 13.7163 115.986 14.2809C115.1 14.8455 114.333 15.5792 113.73 16.44L104.22 30C96.4 26.0514 87.7611 23.9961 79.0004 24H77.2604L74.3704 7.70998C74.2187 6.64854 73.8552 5.62842 73.3015 4.71024C72.7478 3.79207 72.0151 2.99457 71.1471 2.36514C70.279 1.73572 69.2933 1.28721 68.2485 1.04627C67.2037 0.80533 66.1212 0.776877 65.0651 0.962602C64.0091 1.14833 63.0012 1.54444 62.1013 2.1274C61.2014 2.71036 60.4279 3.46827 59.8267 4.3561C59.2255 5.24392 58.8089 6.24354 58.6017 7.29554C58.3945 8.34755 58.4008 9.43048 58.6204 10.48L61.5004 26.82C52.6279 29.7546 44.6291 34.8591 38.2304 41.67L24.6104 32.14C23.7503 31.5224 22.7761 31.0817 21.7444 30.8435C20.7126 30.6053 19.6439 30.5742 18.6 30.7522C17.5562 30.9301 16.5581 31.3135 15.6636 31.8802C14.769 32.4468 13.9959 33.1854 13.389 34.053C12.7821 34.9207 12.3534 35.9003 12.128 36.9349C11.9025 37.9695 11.8846 39.0385 12.0755 40.0801C12.2663 41.1216 12.662 42.1149 13.2396 43.0024C13.8172 43.8899 14.5653 44.6538 15.4404 45.25L29.0004 54.77C25.0378 62.5888 22.9818 71.2344 23.0004 80V81.72L6.7104 84.6C4.73867 84.9454 2.96807 86.0175 1.74814 87.6045C0.528198 89.1916 -0.0524291 91.1783 0.120874 93.1726C0.294177 95.1668 1.20882 97.0236 2.68424 98.3765C4.15966 99.7293 6.08864 100.48 8.0904 100.48C8.55629 100.479 9.02129 100.439 9.4804 100.36L25.8004 97.48C27.2343 101.846 29.2026 106.017 31.6604 109.9C24.0083 117.008 18.6737 126.255 16.3514 136.437C14.0291 146.619 14.8266 157.265 18.6401 166.988C22.4536 176.71 29.1064 185.059 37.7321 190.948C46.3578 196.836 56.5566 199.99 67.0004 200H147C167.157 200 186.488 191.993 200.741 177.74C214.993 163.487 223 144.156 223 124C223 103.844 214.993 84.5126 200.741 70.2599C186.488 56.0071 167.157 48 147 48ZM75.9204 96.76C65.4038 94.9447 54.5835 96.4002 44.9204 100.93C39.5733 92.0982 37.8482 81.5409 40.106 71.4665C42.3637 61.392 48.4294 52.5807 57.0342 46.8755C65.6391 41.1704 76.1166 39.0133 86.2752 40.8556C96.4339 42.6978 105.487 48.3966 111.54 56.76C95.2213 65.348 82.5669 79.5585 75.9204 96.76Z" fill="#F2F2F2"/>
</svg>
