<svg width="54" height="56" viewBox="0 0 54 56" fill="none" xmlns="http://www.w3.org/2000/svg">
<path d="M11.2625 35.453H40.3485C47.7785 35.453 53.5205 29.852 53.5205 22.633C53.5205 15.343 47.5205 9.883 39.5745 9.953C36.5745 3.906 31.0675 0.438004 24.5745 0.438004C15.9265 0.438004 8.63747 7.234 7.95747 15.977C3.41047 17.219 0.480469 21.063 0.480469 25.657C0.480469 31.469 4.84047 35.453 11.2625 35.453ZM22.7935 55.47C23.0045 55.563 23.2625 55.493 23.4735 55.235L33.3875 45.205C33.8795 44.688 33.7155 44.079 33.0355 44.079H28.3715L30.5275 40C30.8095 39.508 30.5975 39.133 30.0825 39.133H25.1845C24.5275 39.133 24.3175 39.367 24.1055 39.836L21.1055 46.656C20.8715 47.196 21.1295 47.546 21.7155 47.546H25.6295L22.6295 54.813C22.4895 55.093 22.5595 55.376 22.7935 55.47ZM6.36347 47.289C7.04347 47.664 7.88747 47.429 8.28547 46.75L11.3555 41.453C11.7775 40.75 11.5435 39.93 10.8405 39.508C10.1375 39.109 9.34047 39.32 8.89547 40.047L5.82547 45.391C5.42547 46.047 5.63747 46.867 6.36347 47.289ZM38.9425 47.289C39.6455 47.664 40.4885 47.429 40.8875 46.75L43.9345 41.453C44.3555 40.75 44.1215 39.93 43.4185 39.508C42.7155 39.109 41.9185 39.32 41.4965 40.047L38.4265 45.391C38.0275 46.047 38.2165 46.867 38.9425 47.289ZM10.9105 53.83C11.5905 54.228 12.4345 53.993 12.8325 53.29L15.8795 48.017C16.3245 47.29 16.0895 46.47 15.3875 46.071C14.6845 45.649 13.8875 45.884 13.4415 46.611L10.3715 51.931C9.97347 52.611 10.1845 53.431 10.9115 53.829M43.4895 53.829C43.6518 53.9247 43.8318 53.9868 44.0187 54.0114C44.2056 54.036 44.3955 54.0227 44.5772 53.9723C44.7588 53.9219 44.9284 53.8354 45.0759 53.718C45.2233 53.6006 45.3456 53.4547 45.4355 53.289L48.4815 48.016C48.9035 47.289 48.6695 46.469 47.9665 46.07C47.2635 45.648 46.4665 45.883 46.0445 46.61L42.9505 51.93C42.5755 52.61 42.7635 53.43 43.4905 53.828" fill="#F2F2F2"/>
</svg>
